<svg width="29" height="29" viewBox="0 0 29 29" fill="none" xmlns="http://www.w3.org/2000/svg">
<g id="&#227;&#131;&#158;&#227;&#130;&#164;&#227;&#131;&#154;&#227;&#131;&#188;&#227;&#130;&#184;&#227;&#130;&#162;&#227;&#130;&#164;&#227;&#130;&#179;&#227;&#131;&#179;">
<path id="Polygon 3" d="M23.0673 14.675L23.0796 14.7411L23.109 14.8016L25.2381 19.193V22.3316L20.04 25.202H10.0408L3.41001 24.0851L2.04059 16.0578L4.11007 10.891L7.85631 8.37474L7.89425 8.34926L7.92694 8.31733L11.6916 4.63938L17.8248 3.52977L20.9536 6.58654L22.1075 9.51764L23.0673 14.675Z" fill="#EEEEEE" stroke="#8D8D8D"/>
<g id="Line 2">
<path d="M19.2004 19.0782L19.2004 15.0566L16.0453 9.37909L9.99898 19.0782L19.2004 19.0782Z" fill="#EEEEEE"/>
<path d="M19.2004 15.0566L19.2004 19.0782M19.2004 15.0566L16.0453 9.37909M19.2004 15.0566L23.5589 14.3469M16.0453 25.7594L19.2004 19.0782M19.2004 19.0782L25.2539 20.261M19.2004 19.0782L9.51469 19.0782M5.39832 16.9491L4.67191 24.5192M5.39832 16.9491L1.76621 16.476M5.39832 16.9491L2.73477 14.3469M5.39832 16.9491L9.51469 19.0782M9.51469 19.0782L10.9675 25.7594M4.35 10.875L9.51469 10.875L16.0453 9.37909M16.0453 9.37909L16.0453 7.72313M16.0453 9.37909L9.99898 19.0782M16.0453 9.37909L21.8639 8.43283M16.0453 7.72313L6.85843 8.43283M16.0453 7.72313L18.2317 2.99183" stroke="#8D8D8D"/>
</g>
</g>
</svg>
